<svg width="131" height="130" viewBox="0 0 131 130" fill="none" xmlns="http://www.w3.org/2000/svg">
<path d="M130.5 65C130.5 100.899 101.399 130 65.5 130C29.6015 130 0.5 100.899 0.5 65C0.5 29.1015 29.6015 0 65.5 0C101.399 0 130.5 29.1015 130.5 65ZM13.5 65C13.5 93.7188 36.7812 117 65.5 117C94.2188 117 117.5 93.7188 117.5 65C117.5 36.2812 94.2188 13 65.5 13C36.7812 13 13.5 36.2812 13.5 65Z" fill="#D9D9D9" fill-opacity="0.2"/>
<path d="M124 65C127.59 65 130.534 67.9175 130.175 71.4894C129.115 82.0523 125.48 92.2304 119.546 101.112C112.403 111.801 102.252 120.132 90.3744 125.052C78.4972 129.972 65.4279 131.259 52.8191 128.751C40.2104 126.243 28.6285 120.052 19.5381 110.962C10.4476 101.872 4.257 90.2896 1.74896 77.6809C-0.759083 65.0721 0.528134 52.0028 5.44783 40.1256C10.3675 28.2484 18.6987 18.0968 29.3879 10.9545C38.2696 5.01996 48.4477 1.38453 59.0106 0.324705C62.5825 -0.0336793 65.5 2.91015 65.5 6.5C65.5 10.0899 62.5786 12.9581 59.0168 13.4057C51.0294 14.4094 43.3529 17.2583 36.6103 21.7636C28.059 27.4774 21.394 35.5987 17.4583 45.1005C13.5225 54.6022 12.4927 65.0577 14.4992 75.1447C16.5056 85.2317 21.4581 94.4972 28.7304 101.77C36.0028 109.042 45.2683 113.994 55.3553 116.001C65.4423 118.007 75.8978 116.977 85.3995 113.042C94.9013 109.106 103.023 102.441 108.736 93.8896C113.242 87.1471 116.091 79.4706 117.094 71.4832C117.542 67.9214 120.41 65 124 65Z" fill="url(#paint0_linear_587_804)"/>
<path d="M88.0695 52.4615V77.5386C88.0695 80.199 87.0127 82.7504 85.1316 84.6315C83.2504 86.5127 80.699 87.5695 78.0387 87.5695H52.9615C50.3011 87.5695 47.7498 86.5127 45.8686 84.6315C43.9875 82.7504 42.9306 80.199 42.9306 77.5386V52.4615C42.9306 49.8011 43.9875 47.2497 45.8686 45.3686C47.7498 43.4874 50.3011 42.4306 52.9615 42.4306H78.0387C80.699 42.4306 83.2504 43.4874 85.1316 45.3686C87.0127 47.2497 88.0695 49.8011 88.0695 52.4615Z" stroke="#959595" stroke-width="4" stroke-linecap="round" stroke-linejoin="round"/>
<path d="M52.9615 75.0309V65M52.9615 65V54.9692H57.9769C59.3071 54.9692 60.5828 55.4976 61.5234 56.4382C62.4639 57.3787 62.9924 58.6544 62.9924 59.9846C62.9924 61.3148 62.4639 62.5905 61.5234 63.5311C60.5828 64.4716 59.3071 65 57.9769 65H52.9615ZM78.0387 62.4923C77.2713 60.9551 75.699 59.9846 73.9812 59.9846H73.0232C72.0256 59.9846 71.0688 60.3809 70.3634 61.0864C69.658 61.7918 69.2616 62.7486 69.2616 63.7462C69.2616 64.7438 69.658 65.7006 70.3634 66.406C71.0688 67.1115 72.0256 67.5078 73.0232 67.5078H74.2771C75.2747 67.5078 76.2315 67.9041 76.9369 68.6095C77.6423 69.3149 78.0387 70.2717 78.0387 71.2693C78.0387 72.267 77.6423 73.2237 76.9369 73.9292C76.2315 74.6346 75.2747 75.0309 74.2771 75.0309H73.3191C72.4767 75.0309 71.6508 74.7963 70.9342 74.3534C70.2176 73.9105 69.6384 73.2767 69.2616 72.5232" stroke="#959595" stroke-width="4" stroke-linecap="round" stroke-linejoin="round"/>
<defs>
<linearGradient id="paint0_linear_587_804" x1="3.90116" y1="12.2641" x2="131.106" y2="21.9712" gradientUnits="userSpaceOnUse">
<stop stop-color="#FD6F00"/>
<stop offset="1" stop-color="#E46400"/>
</linearGradient>
</defs>
</svg>
