<svg width="131" height="130" viewBox="0 0 131 130" fill="none" xmlns="http://www.w3.org/2000/svg">
<path d="M130.25 65C130.25 100.899 101.149 130 65.25 130C29.3515 130 0.25 100.899 0.25 65C0.25 29.1015 29.3515 0 65.25 0C101.149 0 130.25 29.1015 130.25 65ZM13.25 65C13.25 93.7188 36.5312 117 65.25 117C93.9688 117 117.25 93.7188 117.25 65C117.25 36.2812 93.9688 13 65.25 13C36.5312 13 13.25 36.2812 13.25 65Z" fill="#D9D9D9" fill-opacity="0.2"/>
<path d="M130.25 65C130.25 100.899 101.149 130 65.25 130C29.3515 130 0.25 100.899 0.25 65C0.25 29.1015 29.3515 0 65.25 0C101.149 0 130.25 29.1015 130.25 65ZM13.25 65C13.25 93.7188 36.5312 117 65.25 117C93.9688 117 117.25 93.7188 117.25 65C117.25 36.2812 93.9688 13 65.25 13C36.5312 13 13.25 36.2812 13.25 65Z" fill="url(#paint0_linear_587_793)"/>
<path d="M52.7114 54.9692L62.7423 75.0309M52.7114 75.0309L62.7423 54.9692M87.8194 52.4615V77.5386C87.8194 80.199 86.7626 82.7504 84.8815 84.6315C83.0003 86.5127 80.4489 87.5695 77.7886 87.5695H52.7114C50.0511 87.5695 47.4997 86.5127 45.6185 84.6315C43.7374 82.7504 42.6805 80.199 42.6805 77.5386V52.4615C42.6805 49.8011 43.7374 47.2497 45.6185 45.3686C47.4997 43.4874 50.0511 42.4306 52.7114 42.4306H77.7886C80.4489 42.4306 83.0003 43.4874 84.8815 45.3686C86.7626 47.2497 87.8194 49.8011 87.8194 52.4615Z" stroke="#959595" stroke-width="4" stroke-linecap="round" stroke-linejoin="round"/>
<path d="M77.7886 65.0001V73.5263C77.7886 73.7239 77.7496 73.9195 77.674 74.1021C77.5984 74.2846 77.4876 74.4505 77.3479 74.5902C77.2081 74.7299 77.0423 74.8408 76.8597 74.9164C76.6772 74.992 76.4815 75.0309 76.2839 75.0309H72.7731C71.4429 75.0309 70.1673 74.5025 69.2267 73.5619C68.2861 72.6214 67.7577 71.3457 67.7577 70.0155C67.7577 68.6853 68.2861 67.4096 69.2267 66.469C70.1673 65.5285 71.4429 65.0001 72.7731 65.0001H77.7886ZM77.7886 65.0001V57.4769" stroke="#959595" stroke-width="4" stroke-linecap="round" stroke-linejoin="round"/>
<defs>
<linearGradient id="paint0_linear_587_793" x1="3.65116" y1="12.2641" x2="130.856" y2="21.9712" gradientUnits="userSpaceOnUse">
<stop stop-color="#FD6F00"/>
<stop offset="1" stop-color="#E46400"/>
</linearGradient>
</defs>
</svg>
